<svg width="67" height="40" viewBox="0 0 67 40" fill="none" xmlns="http://www.w3.org/2000/svg">
<path fill-rule="evenodd" clip-rule="evenodd" d="M62.8556 40H4.14444C1.86501 40 0 38.1193 0 35.8206V4.17936C0 1.88072 1.86501 0 4.14444 0H62.8556C65.135 0 67 1.88072 67 4.17936V35.8206C67 38.1193 65.135 40 62.8556 40Z" fill="#E1232E"/>
<path d="M39.0751 19.3385V22.169H36.1988C35.9038 22.169 35.6826 21.9331 35.6826 21.661V19.3566C35.6826 19.0663 35.9223 18.8486 36.1988 18.8486H38.5404C38.8539 18.8304 39.0751 19.0482 39.0751 19.3385Z" fill="white"/>
<path d="M52.5531 20.4817H51.1149C51.1149 18.7942 49.7137 17.4153 47.999 17.4153C46.6346 17.4153 45.4362 18.2862 45.0305 19.5563C44.9383 19.8648 44.883 20.1732 44.883 20.4817V24.9815H44.8462C44.0718 24.9815 43.4449 24.3646 43.4449 23.6025V20.4817H43.4633C43.4633 19.2478 43.9796 18.0685 44.9015 17.2157C45.7496 16.4355 46.8559 16 48.0174 16C50.5249 16 52.5531 18.014 52.5531 20.4817Z" fill="white"/>
<path d="M52.5715 24.9819L50.5433 25.0001L50.0455 24.5102L48.9393 23.4215L47.4089 21.9155H49.4371L52.5715 24.9819Z" fill="white"/>
<path d="M39.5546 23.5662H35.2218C34.6871 23.5662 34.263 23.1489 34.263 22.6227V18.3588C34.263 17.8326 34.6871 17.4153 35.2218 17.4153H39.5546C40.0893 17.4153 40.5134 17.8326 40.5134 18.3588V22.6227L41.9515 24.038V17.379C41.9515 16.6169 41.3246 16 40.5502 16H34.2261C33.4518 16 32.8249 16.6169 32.8249 17.379V23.6025C32.8249 24.3646 33.4518 24.9815 34.2261 24.9815H40.9927L39.5546 23.5662Z" fill="white"/>
<path d="M21.9466 24.9996H19.9185L15.6778 20.8083V24.9996H14V16H15.6778V20.0099L19.7525 16H21.7438L17.3188 20.3184L21.9466 24.9996Z" fill="white"/>
<path d="M29.5246 16H31.1656V24.9996H29.5246V21.0986H24.8415V24.9996H23.2005V16H24.8415V19.7559H29.5246V16Z" fill="white"/>
</svg>
