<svg width="358" height="18" viewBox="0 0 358 18" fill="none" xmlns="http://www.w3.org/2000/svg">
<path d="M3.08239 14L0.298295 3.81818H1.55114L3.67898 12.1108H3.77841L5.94602 3.81818H7.33807L9.50568 12.1108H9.60511L11.733 3.81818H12.9858L10.2017 14H8.92898L6.68182 5.88636H6.60227L4.35511 14H3.08239ZM16.8537 14.1591C16.1179 14.1591 15.4832 13.9967 14.9496 13.6719C14.4193 13.3438 14.0099 12.8864 13.7216 12.2997C13.4366 11.7098 13.294 11.0237 13.294 10.2415C13.294 9.45928 13.4366 8.76989 13.7216 8.1733C14.0099 7.57339 14.411 7.10606 14.9247 6.77131C15.4418 6.43324 16.045 6.2642 16.7344 6.2642C17.1321 6.2642 17.5249 6.33049 17.9126 6.46307C18.3004 6.59564 18.6534 6.81108 18.9716 7.10938C19.2898 7.40436 19.5433 7.79545 19.7322 8.28267C19.9212 8.76989 20.0156 9.36979 20.0156 10.0824V10.5795H14.1293V9.56534H18.8224C18.8224 9.13447 18.7363 8.75 18.5639 8.41193C18.3949 8.07386 18.1529 7.80705 17.8381 7.61151C17.5265 7.41596 17.1586 7.31818 16.7344 7.31818C16.267 7.31818 15.8627 7.43419 15.5213 7.66619C15.1832 7.89489 14.9231 8.19318 14.7408 8.56108C14.5585 8.92898 14.4673 9.32339 14.4673 9.74432V10.4205C14.4673 10.9972 14.5668 11.486 14.7656 11.8871C14.9678 12.2848 15.2479 12.5881 15.6058 12.7969C15.9638 13.0024 16.3797 13.1051 16.8537 13.1051C17.1619 13.1051 17.4403 13.062 17.6889 12.9759C17.9408 12.8864 18.1579 12.7538 18.3402 12.5781C18.5225 12.3991 18.6634 12.1771 18.7628 11.9119L19.8963 12.2301C19.777 12.6146 19.5765 12.9527 19.2947 13.2443C19.013 13.5327 18.665 13.758 18.2507 13.9205C17.8364 14.0795 17.3707 14.1591 16.8537 14.1591ZM27.9851 14.179C27.5012 14.179 27.062 14.0878 26.6676 13.9055C26.2732 13.7199 25.96 13.4531 25.728 13.1051C25.496 12.7538 25.38 12.3295 25.38 11.8324C25.38 11.3949 25.4661 11.0402 25.6385 10.7685C25.8108 10.4934 26.0412 10.2779 26.3295 10.1222C26.6179 9.96638 26.9361 9.85038 27.2841 9.77415C27.6354 9.6946 27.9884 9.63163 28.343 9.58523C28.8071 9.52557 29.1832 9.48082 29.4716 9.45099C29.7633 9.41785 29.9754 9.36316 30.108 9.28693C30.2438 9.2107 30.3118 9.07812 30.3118 8.8892V8.84943C30.3118 8.3589 30.1776 7.97775 29.9091 7.70597C29.6439 7.43419 29.2412 7.2983 28.701 7.2983C28.1409 7.2983 27.7017 7.42093 27.3835 7.66619C27.0653 7.91146 26.8416 8.1733 26.7124 8.4517L25.5987 8.05398C25.7976 7.58996 26.0627 7.22869 26.3942 6.97017C26.7289 6.70833 27.0935 6.52604 27.4879 6.4233C27.8857 6.31723 28.2768 6.2642 28.6612 6.2642C28.9065 6.2642 29.1882 6.29403 29.5064 6.35369C29.8279 6.41004 30.1378 6.5277 30.4361 6.70668C30.7377 6.88565 30.9879 7.15578 31.1868 7.51705C31.3857 7.87831 31.4851 8.36222 31.4851 8.96875V14H30.3118V12.9659H30.2521C30.1726 13.1316 30.04 13.3089 29.8544 13.4979C29.6688 13.6868 29.4219 13.8475 29.1136 13.9801C28.8054 14.1127 28.4292 14.179 27.9851 14.179ZM28.1641 13.125C28.6281 13.125 29.0192 13.0339 29.3374 12.8516C29.6589 12.6693 29.9008 12.4339 30.0632 12.1456C30.2289 11.8572 30.3118 11.554 30.3118 11.2358V10.1619C30.2621 10.2216 30.1527 10.2763 29.9837 10.326C29.8179 10.3724 29.6257 10.4138 29.407 10.4503C29.1915 10.4834 28.9811 10.5133 28.7756 10.5398C28.5734 10.563 28.4093 10.5829 28.2834 10.5994C27.9785 10.6392 27.6934 10.7038 27.4283 10.7933C27.1664 10.8795 26.9543 11.0104 26.7919 11.1861C26.6328 11.3584 26.5533 11.5937 26.5533 11.892C26.5533 12.2997 26.7041 12.608 27.0057 12.8168C27.3106 13.0223 27.6967 13.125 28.1641 13.125ZM36.7289 14.1591C36.013 14.1591 35.3965 13.9901 34.8794 13.652C34.3624 13.3139 33.9647 12.8482 33.6863 12.255C33.4078 11.6617 33.2686 10.9839 33.2686 10.2216C33.2686 9.44602 33.4112 8.7616 33.6962 8.16832C33.9846 7.57173 34.3856 7.10606 34.8993 6.77131C35.4164 6.43324 36.0196 6.2642 36.709 6.2642C37.2459 6.2642 37.7298 6.36364 38.1607 6.5625C38.5916 6.76136 38.9445 7.03977 39.2196 7.39773C39.4947 7.75568 39.6654 8.1733 39.7317 8.65057H38.5584C38.4689 8.30256 38.2701 7.99432 37.9618 7.72585C37.6569 7.45407 37.2459 7.31818 36.7289 7.31818C36.2715 7.31818 35.8704 7.4375 35.5257 7.67614C35.1844 7.91146 34.9176 8.24455 34.7253 8.67543C34.5364 9.10298 34.4419 9.60511 34.4419 10.1818C34.4419 10.7718 34.5347 11.2855 34.7203 11.723C34.9093 12.1605 35.1744 12.5002 35.5158 12.7422C35.8605 12.9841 36.2649 13.1051 36.7289 13.1051C37.0338 13.1051 37.3105 13.0521 37.5591 12.946C37.8077 12.84 38.0182 12.6875 38.1905 12.4886C38.3629 12.2898 38.4855 12.0511 38.5584 11.7727H39.7317C39.6654 12.2235 39.5014 12.6295 39.2395 12.9908C38.981 13.3487 38.638 13.6338 38.2104 13.8459C37.7862 14.0547 37.2923 14.1591 36.7289 14.1591ZM44.5492 14.1591C43.8333 14.1591 43.2168 13.9901 42.6998 13.652C42.1827 13.3139 41.785 12.8482 41.5066 12.255C41.2282 11.6617 41.089 10.9839 41.089 10.2216C41.089 9.44602 41.2315 8.7616 41.5165 8.16832C41.8049 7.57173 42.2059 7.10606 42.7196 6.77131C43.2367 6.43324 43.8399 6.2642 44.5293 6.2642C45.0662 6.2642 45.5501 6.36364 45.981 6.5625C46.4119 6.76136 46.7649 7.03977 47.04 7.39773C47.315 7.75568 47.4857 8.1733 47.552 8.65057H46.3787C46.2892 8.30256 46.0904 7.99432 45.7821 7.72585C45.4772 7.45407 45.0662 7.31818 44.5492 7.31818C44.0918 7.31818 43.6908 7.4375 43.3461 7.67614C43.0047 7.91146 42.7379 8.24455 42.5456 8.67543C42.3567 9.10298 42.2623 9.60511 42.2623 10.1818C42.2623 10.7718 42.3551 11.2855 42.5407 11.723C42.7296 12.1605 42.9947 12.5002 43.3361 12.7422C43.6808 12.9841 44.0852 13.1051 44.5492 13.1051C44.8541 13.1051 45.1309 13.0521 45.3794 12.946C45.628 12.84 45.8385 12.6875 46.0108 12.4886C46.1832 12.2898 46.3058 12.0511 46.3787 11.7727H47.552C47.4857 12.2235 47.3217 12.6295 47.0598 12.9908C46.8013 13.3487 46.4583 13.6338 46.0307 13.8459C45.6065 14.0547 45.1126 14.1591 44.5492 14.1591ZM52.4689 14.1591C51.7331 14.1591 51.0984 13.9967 50.5648 13.6719C50.0345 13.3438 49.6252 12.8864 49.3368 12.2997C49.0518 11.7098 48.9093 11.0237 48.9093 10.2415C48.9093 9.45928 49.0518 8.76989 49.3368 8.1733C49.6252 7.57339 50.0262 7.10606 50.54 6.77131C51.057 6.43324 51.6602 6.2642 52.3496 6.2642C52.7473 6.2642 53.1401 6.33049 53.5279 6.46307C53.9157 6.59564 54.2686 6.81108 54.5868 7.10938C54.905 7.40436 55.1586 7.79545 55.3475 8.28267C55.5364 8.76989 55.6309 9.36979 55.6309 10.0824V10.5795H49.7445V9.56534H54.4377C54.4377 9.13447 54.3515 8.75 54.1792 8.41193C54.0101 8.07386 53.7682 7.80705 53.4533 7.61151C53.1417 7.41596 52.7739 7.31818 52.3496 7.31818C51.8823 7.31818 51.4779 7.43419 51.1365 7.66619C50.7985 7.89489 50.5383 8.19318 50.356 8.56108C50.1737 8.92898 50.0826 9.32339 50.0826 9.74432V10.4205C50.0826 10.9972 50.182 11.486 50.3809 11.8871C50.583 12.2848 50.8631 12.5881 51.2211 12.7969C51.579 13.0024 51.995 13.1051 52.4689 13.1051C52.7772 13.1051 53.0556 13.062 53.3042 12.9759C53.556 12.8864 53.7731 12.7538 53.9554 12.5781C54.1377 12.3991 54.2786 12.1771 54.378 11.9119L55.5115 12.2301C55.3922 12.6146 55.1917 12.9527 54.91 13.2443C54.6283 13.5327 54.2802 13.758 53.8659 13.9205C53.4516 14.0795 52.986 14.1591 52.4689 14.1591ZM57.4157 16.8636V6.36364H58.5492V7.5767H58.6884C58.7746 7.44413 58.8939 7.27509 59.0463 7.0696C59.2021 6.8608 59.4242 6.67519 59.7125 6.51278C60.0042 6.34706 60.3986 6.2642 60.8958 6.2642C61.5388 6.2642 62.1055 6.42495 62.5961 6.74645C63.0866 7.06794 63.4694 7.52367 63.7445 8.11364C64.0196 8.7036 64.1571 9.39962 64.1571 10.2017C64.1571 11.0104 64.0196 11.7114 63.7445 12.3047C63.4694 12.8946 63.0882 13.352 62.601 13.6768C62.1138 13.9983 61.552 14.1591 60.9157 14.1591C60.4251 14.1591 60.0324 14.0779 59.7374 13.9155C59.4424 13.7498 59.2154 13.5625 59.0563 13.3537C58.8972 13.1416 58.7746 12.9659 58.6884 12.8267H58.589V16.8636H57.4157ZM58.5691 10.1818C58.5691 10.7585 58.6536 11.2673 58.8226 11.7081C58.9917 12.1456 59.2386 12.4886 59.5634 12.7372C59.8882 12.9825 60.2859 13.1051 60.7566 13.1051C61.2471 13.1051 61.6564 12.9759 61.9846 12.7173C62.316 12.4555 62.5646 12.1042 62.7303 11.6634C62.8993 11.2192 62.9838 10.7254 62.9838 10.1818C62.9838 9.64489 62.901 9.16098 62.7353 8.73011C62.5729 8.29593 62.3259 7.95289 61.9945 7.70099C61.6664 7.44579 61.2537 7.31818 60.7566 7.31818C60.2793 7.31818 59.8783 7.43916 59.5534 7.68111C59.2286 7.91974 58.9834 8.2545 58.8176 8.68537C58.6519 9.11293 58.5691 9.61174 58.5691 10.1818ZM69.2679 6.36364V7.35795H65.3105V6.36364H69.2679ZM66.464 4.53409H67.6373V11.8125C67.6373 12.1439 67.6853 12.3925 67.7814 12.5582C67.8809 12.7206 68.0068 12.83 68.1593 12.8864C68.315 12.9394 68.4791 12.9659 68.6515 12.9659C68.7807 12.9659 68.8868 12.9593 68.9696 12.946C69.0525 12.9295 69.1188 12.9162 69.1685 12.9062L69.4071 13.9602C69.3276 13.9901 69.2166 14.0199 69.074 14.0497C68.9315 14.0829 68.7509 14.0994 68.5321 14.0994C68.2007 14.0994 67.8759 14.0282 67.5577 13.8857C67.2428 13.7431 66.981 13.526 66.7722 13.2344C66.5667 12.9427 66.464 12.5748 66.464 12.1307V4.53409ZM71.888 14.0795C71.6427 14.0795 71.4322 13.9917 71.2566 13.8161C71.0809 13.6404 70.9931 13.4299 70.9931 13.1847C70.9931 12.9394 71.0809 12.7289 71.2566 12.5533C71.4322 12.3776 71.6427 12.2898 71.888 12.2898C72.1332 12.2898 72.3437 12.3776 72.5194 12.5533C72.695 12.7289 72.7828 12.9394 72.7828 13.1847C72.7828 13.3471 72.7414 13.4962 72.6586 13.6321C72.579 13.768 72.4713 13.8774 72.3354 13.9602C72.2028 14.0398 72.0537 14.0795 71.888 14.0795ZM71.888 8.41193C71.6427 8.41193 71.4322 8.3241 71.2566 8.14844C71.0809 7.97277 70.9931 7.76231 70.9931 7.51705C70.9931 7.27178 71.0809 7.06132 71.2566 6.88565C71.4322 6.70999 71.6427 6.62216 71.888 6.62216C72.1332 6.62216 72.3437 6.70999 72.5194 6.88565C72.695 7.06132 72.7828 7.27178 72.7828 7.51705C72.7828 7.67945 72.7414 7.8286 72.6586 7.96449C72.579 8.10038 72.4713 8.20975 72.3354 8.29261C72.2028 8.37216 72.0537 8.41193 71.888 8.41193Z" fill="#0E121B"/>
<path fill-rule="evenodd" clip-rule="evenodd" d="M104.268 17H79.732C78.7794 17 78 16.2477 78 15.3283V2.67174C78 1.75229 78.7794 1 79.732 1H104.268C105.221 1 106 1.75229 106 2.67174V15.3283C106 16.2477 105.221 17 104.268 17Z" fill="#005E7B"/>
<path d="M88.375 11.8094H87.1602L86.7764 10.6405H84.5908L84.2217 11.8094H83L85.0059 6.12781H86.3447L88.375 11.8094ZM101.149 11.8094H99.9297L99.5459 10.6405H97.3604L96.9912 11.8094H95.7695L97.7734 6.12781H99.1143L101.149 11.8094ZM92.6572 6.12781C93.8257 6.12781 94.4287 6.64093 94.4287 7.56531C94.4287 8.13386 94.2097 8.52133 93.7539 8.73425C94.3416 8.97136 94.6249 9.41373 94.625 10.079C94.625 11.1606 93.9028 11.8074 92.5713 11.8075H90.001V6.12781H92.6572ZM91.1143 10.7831H92.4844C93.1202 10.7831 93.4209 10.568 93.4209 10.0477C93.4209 9.49369 93.1205 9.29578 92.4775 9.29578H91.1143V10.7831ZM84.8936 9.68445H86.46L85.6777 7.26746L84.8936 9.68445ZM97.667 9.68445H99.2344L98.4521 7.26746L97.667 9.68445ZM91.1143 8.32507H92.4395C92.9935 8.325 93.2617 8.14336 93.2617 7.70789C93.2617 7.27235 92.9886 7.11709 92.4297 7.11707H91.1143V8.32507Z" fill="white"/>
<path d="M102.927 5H101.829V7.25771H102.927V5Z" fill="#EB2427"/>
<path fill-rule="evenodd" clip-rule="evenodd" d="M136.268 17H111.732C110.779 17 110 16.2477 110 15.3283V2.67174C110 1.75229 110.779 1 111.732 1H136.268C137.221 1 138 1.75229 138 2.67174V15.3283C138 16.2477 137.221 17 136.268 17Z" fill="#E1232E"/>
<path d="M127.002 8.68606V10.1156H125.511C125.358 10.1156 125.243 9.9965 125.243 9.85904V8.69524C125.243 8.54861 125.367 8.43864 125.511 8.43864H126.725C126.887 8.42948 127.002 8.53944 127.002 8.68606Z" fill="white"/>
<path d="M133.991 9.26347H133.245C133.245 8.41123 132.518 7.71477 131.629 7.71477C130.922 7.71477 130.3 8.15464 130.09 8.79611C130.042 8.9519 130.014 9.10768 130.014 9.26347V11.5361H129.994C129.593 11.5361 129.268 11.2245 129.268 10.8396V9.26347H129.277C129.277 8.64033 129.545 8.04468 130.023 7.61397C130.463 7.21993 131.036 7 131.639 7C132.939 7 133.991 8.01718 133.991 9.26347Z" fill="white"/>
<path d="M134 11.5364L132.948 11.5455L132.69 11.2981L132.117 10.7483L131.323 9.98767H132.375L134 11.5364Z" fill="white"/>
<path d="M127.251 10.8213H125.004C124.727 10.8213 124.507 10.6106 124.507 10.3448V8.1913C124.507 7.92555 124.727 7.71477 125.004 7.71477H127.251C127.528 7.71477 127.748 7.92555 127.748 8.1913V10.3448L128.493 11.0596V7.69645C128.493 7.31157 128.168 7 127.767 7H124.488C124.086 7 123.761 7.31157 123.761 7.69645V10.8396C123.761 11.2245 124.086 11.5361 124.488 11.5361H127.996L127.251 10.8213Z" fill="white"/>
<path d="M118.12 11.5453H117.069L114.87 9.42842V11.5453H114V7H114.87V9.02521L116.983 7H118.015L115.721 9.18099L118.12 11.5453Z" fill="white"/>
<path d="M122.05 7H122.901V11.5453H122.05V9.57504H119.622V11.5453H118.771V7H119.622V8.89691H122.05V7Z" fill="white"/>



<defs>
<linearGradient id="paint0_linear_18242_3325" x1="252.532" y1="9.92761" x2="259.017" y2="9.92761" gradientUnits="userSpaceOnUse">
<stop stop-color="#007940"/>
<stop offset="0.2285" stop-color="#00873F"/>
<stop offset="0.7433" stop-color="#40A737"/>
<stop offset="1" stop-color="#5CB531"/>
</linearGradient>
<linearGradient id="paint1_linear_18242_3325" x1="252.531" y1="8.91063" x2="259.018" y2="8.91063" gradientUnits="userSpaceOnUse">
<stop stop-color="#007940"/>
<stop offset="0.2285" stop-color="#00873F"/>
<stop offset="0.7433" stop-color="#40A737"/>
<stop offset="1" stop-color="#5CB531"/>
</linearGradient>
<linearGradient id="paint2_linear_18242_3325" x1="252.531" y1="7.80461" x2="259.018" y2="7.80461" gradientUnits="userSpaceOnUse">
<stop stop-color="#007940"/>
<stop offset="0.2285" stop-color="#00873F"/>
<stop offset="0.7433" stop-color="#40A737"/>
<stop offset="1" stop-color="#5CB531"/>
</linearGradient>
<linearGradient id="paint3_linear_18242_3325" x1="238.011" y1="8.91063" x2="244.598" y2="8.91063" gradientUnits="userSpaceOnUse">
<stop stop-color="#1F286F"/>
<stop offset="0.4751" stop-color="#004E94"/>
<stop offset="0.8261" stop-color="#0066B1"/>
<stop offset="1" stop-color="#006FBC"/>
</linearGradient>
<linearGradient id="paint4_linear_18242_3325" x1="245.237" y1="8.91063" x2="251.634" y2="8.91063" gradientUnits="userSpaceOnUse">
<stop stop-color="#6C2C2F"/>
<stop offset="0.1735" stop-color="#882730"/>
<stop offset="0.5731" stop-color="#BE1833"/>
<stop offset="0.8585" stop-color="#DC0436"/>
<stop offset="1" stop-color="#E60039"/>
</linearGradient>
</defs>
</svg>
