<svg width="289" height="18" viewBox="0 0 289 18" fill="none" xmlns="http://www.w3.org/2000/svg">
<path d="M0.252 4.844H1.918L2.716 9.464C2.79067 9.95867 2.86533 10.4487 2.94 10.934C3.01467 11.4193 3.08933 11.9047 3.164 12.39H3.22C3.32267 11.9047 3.42067 11.4193 3.514 10.934C3.61667 10.4393 3.71933 9.94933 3.822 9.464L4.942 4.844H6.356L7.476 9.464C7.57867 9.94 7.68133 10.4253 7.784 10.92C7.88667 11.4053 7.98933 11.8953 8.092 12.39H8.148C8.22267 11.8953 8.29267 11.4053 8.358 10.92C8.43267 10.4347 8.50733 9.94933 8.582 9.464L9.38 4.844H10.934L9.184 14H7.168L6.034 9.184C5.95933 8.82933 5.88467 8.47933 5.81 8.134C5.74467 7.77933 5.684 7.42467 5.628 7.07H5.572C5.50667 7.42467 5.43667 7.77933 5.362 8.134C5.29667 8.47933 5.22667 8.82933 5.152 9.184L4.046 14H2.072L0.252 4.844ZM11.7713 10.57C11.7713 10.01 11.8599 9.506 12.0373 9.058C12.2146 8.61 12.4479 8.232 12.7373 7.924C13.0359 7.616 13.3766 7.378 13.7593 7.21C14.1419 7.042 14.5339 6.958 14.9353 6.958C15.4019 6.958 15.8126 7.03733 16.1673 7.196C16.5219 7.35467 16.8159 7.57867 17.0493 7.868C17.2919 8.15733 17.4739 8.50267 17.5953 8.904C17.7166 9.30533 17.7773 9.744 17.7773 10.22C17.7773 10.5373 17.7539 10.7893 17.7073 10.976H13.3393C13.4139 11.6013 13.6286 12.082 13.9833 12.418C14.3473 12.754 14.8093 12.922 15.3693 12.922C15.6679 12.922 15.9433 12.88 16.1953 12.796C16.4566 12.7027 16.7133 12.5767 16.9653 12.418L17.5113 13.426C17.1846 13.6407 16.8206 13.818 16.4193 13.958C16.0179 14.098 15.5979 14.168 15.1593 14.168C14.6833 14.168 14.2399 14.0887 13.8293 13.93C13.4186 13.762 13.0593 13.524 12.7513 13.216C12.4433 12.908 12.2006 12.5347 12.0233 12.096C11.8553 11.648 11.7713 11.1393 11.7713 10.57ZM16.3773 9.954C16.3773 9.40333 16.2606 8.974 16.0273 8.666C15.8033 8.358 15.4533 8.204 14.9773 8.204C14.5666 8.204 14.2073 8.35333 13.8993 8.652C13.5913 8.94133 13.3999 9.37533 13.3253 9.954H16.3773ZM21.8921 12.152C21.8921 11.4147 22.2141 10.8453 22.8581 10.444C23.5021 10.0427 24.5287 9.76267 25.9381 9.604C25.9381 9.42667 25.9147 9.25867 25.8681 9.1C25.8214 8.932 25.7467 8.78733 25.6441 8.666C25.5507 8.53533 25.4247 8.43733 25.2661 8.372C25.1167 8.29733 24.9254 8.26 24.6921 8.26C24.3467 8.26 24.0107 8.32533 23.6841 8.456C23.3667 8.58667 23.0587 8.74533 22.7601 8.932L22.1721 7.854C22.5547 7.61133 22.9794 7.40133 23.4461 7.224C23.9221 7.04667 24.4354 6.958 24.9861 6.958C25.8541 6.958 26.4981 7.21467 26.9181 7.728C27.3381 8.232 27.5481 8.96467 27.5481 9.926V14H26.2321L26.1061 13.244H26.0641C25.7561 13.5053 25.4247 13.7247 25.0701 13.902C24.7247 14.0793 24.3467 14.168 23.9361 14.168C23.3294 14.168 22.8347 13.986 22.4521 13.622C22.0787 13.2487 21.8921 12.7587 21.8921 12.152ZM23.4601 12.026C23.4601 12.334 23.5487 12.558 23.7261 12.698C23.9127 12.838 24.1507 12.908 24.4401 12.908C24.7201 12.908 24.9767 12.8427 25.2101 12.712C25.4434 12.5813 25.6861 12.3947 25.9381 12.152V10.612C25.4714 10.668 25.0794 10.7427 24.7621 10.836C24.4447 10.9293 24.1881 11.0367 23.9921 11.158C23.8054 11.27 23.6701 11.4007 23.5861 11.55C23.5021 11.6993 23.4601 11.858 23.4601 12.026ZM29.0662 10.57C29.0662 10.0007 29.1595 9.492 29.3462 9.044C29.5329 8.596 29.7849 8.218 30.1022 7.91C30.4195 7.602 30.7835 7.36867 31.1942 7.21C31.6142 7.042 32.0529 6.958 32.5102 6.958C32.9582 6.958 33.3455 7.03733 33.6722 7.196C34.0082 7.34533 34.2929 7.532 34.5262 7.756L33.7562 8.778C33.5695 8.61933 33.3829 8.498 33.1962 8.414C33.0095 8.32067 32.8089 8.274 32.5942 8.274C32.0342 8.274 31.5815 8.484 31.2362 8.904C30.8909 9.31467 30.7182 9.87 30.7182 10.57C30.7182 11.2607 30.8862 11.816 31.2222 12.236C31.5675 12.6467 32.0109 12.852 32.5522 12.852C32.8322 12.852 33.0889 12.796 33.3222 12.684C33.5649 12.5627 33.7795 12.4227 33.9662 12.264L34.6382 13.286C34.3115 13.5753 33.9522 13.7947 33.5602 13.944C33.1682 14.0933 32.7762 14.168 32.3842 14.168C31.9175 14.168 31.4789 14.0887 31.0682 13.93C30.6669 13.7713 30.3169 13.538 30.0182 13.23C29.7195 12.922 29.4862 12.544 29.3182 12.096C29.1502 11.648 29.0662 11.1393 29.0662 10.57ZM35.1912 10.57C35.1912 10.0007 35.2845 9.492 35.4712 9.044C35.6579 8.596 35.9099 8.218 36.2272 7.91C36.5445 7.602 36.9085 7.36867 37.3192 7.21C37.7392 7.042 38.1779 6.958 38.6352 6.958C39.0832 6.958 39.4705 7.03733 39.7972 7.196C40.1332 7.34533 40.4179 7.532 40.6512 7.756L39.8812 8.778C39.6945 8.61933 39.5079 8.498 39.3212 8.414C39.1345 8.32067 38.9339 8.274 38.7192 8.274C38.1592 8.274 37.7065 8.484 37.3612 8.904C37.0159 9.31467 36.8432 9.87 36.8432 10.57C36.8432 11.2607 37.0112 11.816 37.3472 12.236C37.6925 12.6467 38.1359 12.852 38.6772 12.852C38.9572 12.852 39.2139 12.796 39.4472 12.684C39.6899 12.5627 39.9045 12.4227 40.0912 12.264L40.7632 13.286C40.4365 13.5753 40.0772 13.7947 39.6852 13.944C39.2932 14.0933 38.9012 14.168 38.5092 14.168C38.0425 14.168 37.6039 14.0887 37.1932 13.93C36.7919 13.7713 36.4419 13.538 36.1432 13.23C35.8445 12.922 35.6112 12.544 35.4432 12.096C35.2752 11.648 35.1912 11.1393 35.1912 10.57ZM41.3162 10.57C41.3162 10.01 41.4049 9.506 41.5822 9.058C41.7595 8.61 41.9929 8.232 42.2822 7.924C42.5809 7.616 42.9215 7.378 43.3042 7.21C43.6869 7.042 44.0789 6.958 44.4802 6.958C44.9469 6.958 45.3575 7.03733 45.7122 7.196C46.0669 7.35467 46.3609 7.57867 46.5942 7.868C46.8369 8.15733 47.0189 8.50267 47.1402 8.904C47.2615 9.30533 47.3222 9.744 47.3222 10.22C47.3222 10.5373 47.2989 10.7893 47.2522 10.976H42.8842C42.9589 11.6013 43.1735 12.082 43.5282 12.418C43.8922 12.754 44.3542 12.922 44.9142 12.922C45.2129 12.922 45.4882 12.88 45.7402 12.796C46.0015 12.7027 46.2582 12.5767 46.5102 12.418L47.0562 13.426C46.7295 13.6407 46.3655 13.818 45.9642 13.958C45.5629 14.098 45.1429 14.168 44.7042 14.168C44.2282 14.168 43.7849 14.0887 43.3742 13.93C42.9635 13.762 42.6042 13.524 42.2962 13.216C41.9882 12.908 41.7455 12.5347 41.5682 12.096C41.4002 11.648 41.3162 11.1393 41.3162 10.57ZM45.9222 9.954C45.9222 9.40333 45.8055 8.974 45.5722 8.666C45.3482 8.358 44.9982 8.204 44.5222 8.204C44.1115 8.204 43.7522 8.35333 43.4442 8.652C43.1362 8.94133 42.9449 9.37533 42.8702 9.954H45.9222ZM50.4699 14.56V16.716H48.8599V7.126H50.1899L50.3019 7.854H50.3579C50.6472 7.61133 50.9692 7.40133 51.3239 7.224C51.6786 7.04667 52.0472 6.958 52.4299 6.958C52.8592 6.958 53.2372 7.042 53.5639 7.21C53.8999 7.36867 54.1846 7.602 54.4179 7.91C54.6512 8.218 54.8286 8.58667 54.9499 9.016C55.0712 9.44533 55.1319 9.926 55.1319 10.458C55.1319 11.046 55.0479 11.5733 54.8799 12.04C54.7212 12.4973 54.5066 12.8847 54.2359 13.202C53.9652 13.51 53.6526 13.748 53.2979 13.916C52.9432 14.084 52.5746 14.168 52.1919 14.168C51.8932 14.168 51.5946 14.1027 51.2959 13.972C50.9972 13.8413 50.7079 13.6547 50.4279 13.412L50.4699 14.56ZM50.4699 12.264C50.7219 12.4787 50.9646 12.628 51.1979 12.712C51.4312 12.796 51.6506 12.838 51.8559 12.838C52.3132 12.838 52.6959 12.642 53.0039 12.25C53.3119 11.8487 53.4659 11.256 53.4659 10.472C53.4659 9.78133 53.3492 9.24467 53.1159 8.862C52.8826 8.47933 52.5046 8.288 51.9819 8.288C51.4966 8.288 50.9926 8.54467 50.4699 9.058V12.264ZM57.0002 8.4H56.0202V7.196L57.0842 7.126L57.2802 5.25H58.6242V7.126H60.3742V8.4H58.6242V11.676C58.6242 12.4787 58.9462 12.88 59.5902 12.88C59.7116 12.88 59.8329 12.866 59.9542 12.838C60.0849 12.81 60.2016 12.7727 60.3042 12.726L60.5842 13.916C60.3976 13.9813 60.1829 14.0373 59.9402 14.084C59.7069 14.14 59.4549 14.168 59.1842 14.168C58.7829 14.168 58.4422 14.1073 58.1622 13.986C57.8916 13.8647 57.6676 13.6967 57.4902 13.482C57.3222 13.258 57.1962 12.9967 57.1122 12.698C57.0376 12.39 57.0002 12.0493 57.0002 11.676V8.4ZM61.8039 8.288C61.8039 7.97067 61.9019 7.70933 62.0979 7.504C62.3032 7.29867 62.5552 7.196 62.8539 7.196C63.1525 7.196 63.3999 7.29867 63.5959 7.504C63.7919 7.70933 63.8899 7.97067 63.8899 8.288C63.8899 8.60533 63.7919 8.86667 63.5959 9.072C63.3999 9.27733 63.1525 9.38 62.8539 9.38C62.5552 9.38 62.3032 9.27733 62.0979 9.072C61.9019 8.86667 61.8039 8.60533 61.8039 8.288ZM61.8039 13.076C61.8039 12.7587 61.9019 12.4973 62.0979 12.292C62.3032 12.0867 62.5552 11.984 62.8539 11.984C63.1525 11.984 63.3999 12.0867 63.5959 12.292C63.7919 12.4973 63.8899 12.7587 63.8899 13.076C63.8899 13.3933 63.7919 13.6547 63.5959 13.86C63.3999 14.0653 63.1525 14.168 62.8539 14.168C62.5552 14.168 62.3032 14.0653 62.0979 13.86C61.9019 13.6547 61.8039 13.3933 61.8039 13.076Z" fill="black"/>
<path fill-rule="evenodd" clip-rule="evenodd" d="M99.268 17H74.732C73.7794 17 73 16.2477 73 15.3283V2.67174C73 1.75229 73.7794 1 74.732 1H99.268C100.221 1 101 1.75229 101 2.67174V15.3283C101 16.2477 100.221 17 99.268 17Z" fill="#E1232E"/>
<path d="M90.002 8.68606V10.1156H88.5106C88.3576 10.1156 88.2429 9.9965 88.2429 9.85904V8.69524C88.2429 8.54861 88.3672 8.43864 88.5106 8.43864H89.7248C89.8873 8.42948 90.002 8.53944 90.002 8.68606Z" fill="white"/>
<path d="M96.9906 9.26347H96.2449C96.2449 8.41123 95.5183 7.71477 94.6292 7.71477C93.9217 7.71477 93.3003 8.15464 93.09 8.79611C93.0422 8.9519 93.0135 9.10768 93.0135 9.26347V11.5361H92.9944C92.5929 11.5361 92.2678 11.2245 92.2678 10.8396V9.26347H92.2774C92.2774 8.64033 92.5451 8.04468 93.0231 7.61397C93.4629 7.21993 94.0365 7 94.6388 7C95.9389 7 96.9906 8.01718 96.9906 9.26347Z" fill="white"/>
<path d="M97 11.5364L95.9484 11.5455L95.6902 11.2981L95.1166 10.7483L94.3231 9.98767H95.3747L97 11.5364Z" fill="white"/>
<path d="M90.2506 10.8213H88.0039C87.7267 10.8213 87.5068 10.6106 87.5068 10.3448V8.1913C87.5068 7.92555 87.7267 7.71477 88.0039 7.71477H90.2506C90.5278 7.71477 90.7477 7.92555 90.7477 8.1913V10.3448L91.4934 11.0596V7.69645C91.4934 7.31157 91.1684 7 90.7668 7H87.4877C87.0862 7 86.7611 7.31157 86.7611 7.69645V10.8396C86.7611 11.2245 87.0862 11.5361 87.4877 11.5361H90.9963L90.2506 10.8213Z" fill="white"/>
<path d="M81.1205 11.5453H80.0688L77.87 9.42842V11.5453H77V7H77.87V9.02521L79.9828 7H81.0153L78.7208 9.18099L81.1205 11.5453Z" fill="white"/>
<path d="M85.0499 7H85.9008V11.5453H85.0499V9.57504H82.6216V11.5453H81.7708V7H82.6216V8.89691H85.0499V7Z" fill="white"/>
<path fill-rule="evenodd" clip-rule="evenodd" d="M131.268 17H106.732C105.779 17 105 16.2477 105 15.3283V2.67174C105 1.75229 105.779 1 106.732 1H131.268C132.221 1 133 1.75229 133 2.67174V15.3283C133 16.2477 132.221 17 131.268 17Z" fill="#1B5BA6"/>
<path fill-rule="evenodd" clip-rule="evenodd" d="M123.336 5.31087L123.043 6.73878C122.661 6.56561 122.273 6.45207 121.864 6.42656C121.561 6.40768 121.26 6.41125 120.982 6.562C120.907 6.60318 120.834 6.66032 120.776 6.7253C120.615 6.90394 120.606 7.14728 120.78 7.3098C120.944 7.46242 121.134 7.58636 121.323 7.70612C121.454 7.78901 121.588 7.86653 121.721 7.94404C121.881 8.03648 122.04 8.12891 122.194 8.23041C123.479 9.07673 123.092 10.6894 122.32 11.3401C121.864 11.7251 121.338 11.9262 120.769 12.0061C119.939 12.1224 119.125 12.0357 118.333 11.7493C118.306 11.7395 118.279 11.7276 118.251 11.7147L118.25 11.7146C118.236 11.7081 118.221 11.7014 118.205 11.6945L118.511 10.2046L118.575 10.2352L118.575 10.2353C118.619 10.256 118.66 10.2756 118.701 10.2957C119.25 10.5621 119.825 10.6801 120.43 10.6224C120.649 10.6014 120.859 10.5402 121.038 10.3986C121.323 10.1739 121.354 9.80736 121.081 9.56913C120.947 9.45228 120.794 9.35893 120.641 9.26564C120.58 9.22782 120.518 9.19001 120.457 9.15064C120.356 9.08538 120.253 9.0234 120.15 8.96142C119.936 8.83233 119.721 8.70327 119.529 8.54473C118.557 7.74251 118.858 6.5032 119.434 5.88441C119.876 5.41041 120.428 5.1743 121.038 5.06444C121.798 4.92759 122.541 5.01356 123.267 5.27627C123.28 5.28101 123.292 5.28776 123.308 5.29615C123.316 5.30061 123.325 5.30554 123.336 5.31087ZM108.076 5.28229L108.07 5.31481C108.089 5.31983 108.106 5.32425 108.123 5.32847C108.157 5.33698 108.188 5.34471 108.218 5.35505C108.341 5.3975 108.465 5.43964 108.588 5.48178C108.932 5.59931 109.276 5.71685 109.618 5.841C109.921 5.95101 110.067 6.19265 110.145 6.51408C110.407 7.59387 110.674 8.67239 110.941 9.75091L110.941 9.75094C111.112 10.441 111.283 11.1311 111.453 11.8216C111.479 11.9267 111.522 11.9544 111.622 11.9533C112.133 11.9481 112.644 11.9488 113.154 11.9534C113.247 11.9542 113.292 11.9219 113.328 11.8322C113.975 10.2132 114.624 8.59505 115.274 6.97688L115.859 5.51774C115.893 5.43407 115.925 5.34987 115.958 5.26375L115.958 5.26373L115.958 5.26372L116.007 5.13803C115.995 5.13638 115.985 5.13475 115.977 5.13335C115.961 5.13085 115.951 5.12904 115.94 5.12901C115.79 5.12874 115.64 5.12865 115.49 5.12857H115.49C115.103 5.12834 114.716 5.12811 114.329 5.12471C114.249 5.12402 114.225 5.1654 114.201 5.229C113.735 6.46026 113.269 7.69114 112.803 8.92201L112.802 8.92255L112.802 8.92294L112.756 9.04554C112.699 9.19559 112.642 9.34552 112.58 9.50621L112.484 9.76045C112.476 9.72884 112.47 9.70261 112.465 9.67979L112.465 9.67975C112.455 9.63931 112.448 9.60956 112.442 9.57945C112.371 9.18575 112.3 8.79201 112.229 8.39826C112.075 7.54156 111.92 6.68486 111.763 5.82869C111.679 5.37049 111.39 5.12727 110.947 5.12666C110.121 5.12557 109.295 5.12573 108.469 5.12589H108.469H108.469L108.262 5.12593C108.226 5.12593 108.191 5.12809 108.158 5.13005L108.158 5.13005L108.158 5.13005C108.144 5.13091 108.131 5.13172 108.118 5.1323C108.113 5.13859 108.11 5.14281 108.107 5.14587L108.107 5.14587C108.103 5.15031 108.102 5.15228 108.101 5.15452C108.093 5.19437 108.085 5.23434 108.076 5.28229ZM128.822 11.9415L129 11.9415C128.996 11.9179 128.993 11.8976 128.991 11.8794L128.991 11.8793C128.986 11.8469 128.982 11.8214 128.977 11.7961L128.897 11.3912C128.78 10.8056 128.664 10.22 128.546 9.63467C128.468 9.24721 128.39 8.85978 128.312 8.47235L128.312 8.46847L128.311 8.46565L128.311 8.46469C128.095 7.39186 127.879 6.31901 127.667 5.24551C127.648 5.15044 127.612 5.13083 127.53 5.13136C127.254 5.13321 126.978 5.13282 126.702 5.13244C126.572 5.13226 126.442 5.13208 126.312 5.13213C125.832 5.13233 125.626 5.27784 125.441 5.7382C124.928 7.0188 124.414 8.29918 123.9 9.57954L123.302 11.0704L122.951 11.9457L123.273 11.9458H123.273H123.273C123.738 11.9461 124.192 11.9463 124.645 11.9416C124.681 11.9413 124.733 11.8896 124.748 11.8498C124.847 11.5828 124.94 11.3135 125.029 11.043C125.057 10.96 125.091 10.9198 125.185 10.9205C125.835 10.9249 126.486 10.924 127.136 10.9207C127.222 10.9203 127.259 10.947 127.275 11.0382C127.3 11.1836 127.329 11.3283 127.358 11.473L127.358 11.4731L127.358 11.4732C127.382 11.5907 127.406 11.7082 127.427 11.826C127.443 11.9135 127.481 11.9459 127.567 11.9444C127.782 11.9408 127.996 11.9411 128.211 11.9414C128.289 11.9415 128.367 11.9416 128.445 11.9416L128.822 11.9415ZM126.467 7.01023L126.97 9.53105H125.557L126.433 7.00674L126.467 7.01023ZM117.039 11.9402L118.432 5.13755H116.747L115.351 11.9402H117.039Z" fill="white"/>
<path fill-rule="evenodd" clip-rule="evenodd" d="M163.268 17H138.732C137.779 17 137 16.2477 137 15.3283V2.67174C137 1.75229 137.779 1 138.732 1H163.268C164.221 1 165 1.75229 165 2.67174V15.3283C165 16.2477 164.221 17 163.268 17Z" fill="black"/>
<path fill-rule="evenodd" clip-rule="evenodd" d="M148.891 13.0757H153.881V5.08667H148.891V13.0757Z" fill="#FF5F00"/>
<path fill-rule="evenodd" clip-rule="evenodd" d="M149.405 9.0819C149.404 7.52318 150.134 6.05056 151.385 5.08809C149.134 3.35438 145.876 3.73725 144.108 5.9433C142.339 8.14949 142.73 11.3434 144.98 13.0771C146.86 14.525 149.505 14.525 151.385 13.0771C150.133 12.1145 149.404 10.641 149.405 9.0819Z" fill="#EB001B"/>
<path fill-rule="evenodd" clip-rule="evenodd" d="M160.057 13.8086V13.1548H159.94L159.817 13.5537L159.667 13.1548H159.549V13.8086H159.638V13.3714L159.78 13.713H159.858L159.971 13.3714V13.8086H160.057ZM159.221 13.8086V13.2622H159.346V13.1548H159V13.2622H159.121V13.8086H159.221Z" fill="#F79E1B"/>
<path fill-rule="evenodd" clip-rule="evenodd" d="M159.77 9.08193C159.77 11.8878 157.449 14.1624 154.587 14.1624C153.426 14.1623 152.298 13.7797 151.385 13.0757C153.635 11.3419 154.026 8.14812 152.257 5.94193C152.002 5.62383 151.709 5.33665 151.385 5.08672C153.635 3.35259 156.892 3.73489 158.661 5.94066C159.379 6.83595 159.77 7.94165 159.77 9.08052V9.08193Z" fill="#F79E1B"/>
<path fill-rule="evenodd" clip-rule="evenodd" d="M169.04 15.4816C168.845 16.3202 169.378 17 170.231 17H176.768C177.621 17 178.47 16.3202 178.665 15.4816L181.679 2.51844C181.874 1.67984 181.341 1 180.488 1H173.951C173.098 1 172.249 1.67984 172.054 2.51844L169.04 15.4816Z" fill="#DC1F2A"/>
<path fill-rule="evenodd" clip-rule="evenodd" d="M174.742 15.4816C174.547 16.3202 175.08 17 175.933 17H182.47C183.323 17 184.172 16.3202 184.367 15.4816L187.381 2.51844C187.576 1.67984 187.043 1 186.19 1H179.653C178.8 1 177.951 1.67984 177.756 2.51844L174.742 15.4816Z" fill="#1A457F"/>
<path fill-rule="evenodd" clip-rule="evenodd" d="M181.321 15.4816C181.126 16.3202 181.659 17 182.512 17H189.049C189.901 17 190.751 16.3202 190.946 15.4816L193.96 2.51844C194.155 1.67984 193.622 1 192.769 1H186.232C185.379 1 184.53 1.67984 184.335 2.51844L181.321 15.4816Z" fill="#05798A"/>
<path fill-rule="evenodd" clip-rule="evenodd" d="M185.56 12.8452C185.738 12.8452 185.903 12.8466 186.068 12.8431C186.085 12.8427 186.111 12.8158 186.117 12.7963C186.154 12.6798 186.186 12.5619 186.219 12.4442C186.227 12.4173 186.232 12.3896 186.24 12.3543C186.088 12.3543 185.944 12.3533 185.8 12.3547C185.677 12.3559 185.707 12.335 185.672 12.4494C185.633 12.5775 185.598 12.7073 185.56 12.8452ZM186.794 10.4175C186.618 10.4175 186.45 10.4166 186.281 10.4192C186.268 10.4194 186.248 10.4415 186.242 10.4574C186.225 10.5038 186.213 10.5522 186.199 10.5999C186.156 10.7496 186.113 10.8993 186.069 11.0555C186.09 11.0499 186.102 11.0467 186.114 11.0437C186.282 11.0001 186.452 10.958 186.619 10.9112C186.641 10.9051 186.665 10.877 186.672 10.8543C186.709 10.738 186.741 10.6201 186.774 10.5026C186.781 10.4774 186.786 10.4517 186.794 10.4175ZM186.521 11.3846C186.342 11.3846 186.175 11.3837 186.009 11.3861C185.994 11.3863 185.971 11.4051 185.967 11.4195C185.907 11.6275 185.85 11.8363 185.791 12.0482C185.803 12.0482 185.81 12.05 185.814 12.0479C185.988 11.9716 186.165 11.9059 186.353 11.8753C186.366 11.8732 186.384 11.8596 186.387 11.8478C186.432 11.6975 186.474 11.5465 186.521 11.3846ZM185.575 10.4215C185.525 10.4177 185.485 10.4146 185.435 10.4108C185.461 10.3177 185.486 10.2309 185.51 10.1442C185.531 10.0725 185.549 10.0002 185.574 9.92982C185.58 9.91131 185.605 9.88608 185.621 9.8859C185.853 9.88357 186.085 9.88499 186.316 9.88583C186.322 9.88587 186.328 9.89015 186.34 9.89493C186.333 9.94771 186.325 10.0017 186.317 10.0647C186.387 10.037 186.448 10.0125 186.509 9.98856C186.696 9.9156 186.888 9.87855 187.089 9.88235C187.327 9.88681 187.565 9.88322 187.803 9.88364C187.83 9.88367 187.856 9.88698 187.889 9.88928C187.884 9.91595 187.88 9.93561 187.875 9.95475C187.837 10.0883 187.796 10.221 187.763 10.3554C187.75 10.4044 187.727 10.4222 187.68 10.416C187.622 10.408 187.593 10.4297 187.576 10.49C187.36 11.255 187.14 12.0192 186.922 12.7836C186.917 12.801 186.914 12.819 186.91 12.842C186.955 12.8442 186.996 12.8462 187.045 12.8487C187.04 12.8719 187.038 12.8912 187.032 12.9098C186.997 13.0333 186.959 13.1561 186.927 13.2803C186.915 13.3279 186.893 13.3484 186.845 13.3401C186.782 13.3292 186.755 13.3557 186.74 13.4188C186.708 13.5522 186.703 13.5512 186.565 13.5512H186.045H185.968C185.987 13.4787 186.004 13.4157 186.024 13.3437H184.609C184.609 13.322 184.606 13.3076 184.61 13.295C184.648 13.1596 184.689 13.0247 184.725 12.8888C184.737 12.8439 184.767 12.8401 184.801 12.8459C184.867 12.8571 184.89 12.8268 184.907 12.767C185.124 11.9979 185.344 11.2295 185.563 10.4609C185.566 10.4513 185.569 10.4416 185.575 10.4215Z" fill="#FEFEFE"/>
<path fill-rule="evenodd" clip-rule="evenodd" d="M173.318 5.11369C173.29 5.24643 173.265 5.36969 173.24 5.49288C173.093 6.19908 172.943 6.90471 172.802 7.61196C172.782 7.71057 172.786 7.82041 172.807 7.91923C172.849 8.11371 173.002 8.22787 173.235 8.24648C173.499 8.2674 173.748 8.22459 173.957 8.04671C174.119 7.90877 174.192 7.72486 174.234 7.52303C174.396 6.7375 174.56 5.95235 174.724 5.16702C174.73 5.13764 174.735 5.11271 174.777 5.11303C175.013 5.11477 175.248 5.114 175.484 5.11435C175.492 5.11435 175.501 5.11721 175.512 5.11937C175.512 5.13213 175.514 5.1444 175.512 5.15573C175.338 5.9855 175.17 6.81645 174.989 7.64451C174.84 8.32355 174.403 8.72547 173.727 8.8717C173.385 8.94574 173.039 8.95285 172.698 8.86121C172.337 8.76441 172.08 8.55439 171.997 8.1767C171.951 7.96807 171.977 7.76007 172.021 7.55332C172.187 6.76218 172.352 5.97089 172.515 5.17926C172.526 5.12952 172.543 5.11153 172.596 5.11233C172.813 5.11557 173.03 5.11369 173.248 5.11369H173.318Z" fill="#FEFEFE"/>
<path fill-rule="evenodd" clip-rule="evenodd" d="M182.486 11.417C182.52 11.417 182.544 11.4168 182.569 11.417C182.878 11.4184 183.187 11.4211 183.496 11.4195C183.526 11.4193 183.575 11.3999 183.584 11.3774C183.618 11.2879 183.639 11.1936 183.666 11.0938C183.306 11.0938 182.958 11.0935 182.609 11.0949C182.595 11.095 182.572 11.1091 182.568 11.1212C182.539 11.2158 182.514 11.3116 182.486 11.417ZM183.866 10.3662C183.85 10.3639 183.842 10.3617 183.834 10.3617C183.496 10.3615 183.158 10.3622 182.82 10.3605C182.781 10.3603 182.77 10.3793 182.761 10.4095C182.73 10.5209 182.698 10.6321 182.667 10.7436C182.663 10.7566 182.663 10.7705 182.661 10.7892C182.675 10.7849 182.683 10.7835 182.69 10.7801C182.842 10.7056 183.003 10.6727 183.173 10.6756C183.358 10.6787 183.544 10.6774 183.73 10.6748C183.75 10.6745 183.784 10.6576 183.79 10.6411C183.818 10.5531 183.84 10.4628 183.866 10.3662ZM182.832 9.87403C182.824 9.95835 182.816 10.0335 182.808 10.119C182.884 10.0756 182.95 10.037 183.017 10.0009C183.2 9.90205 183.394 9.85322 183.604 9.85608C183.955 9.86085 184.306 9.8573 184.657 9.85761C184.683 9.85764 184.709 9.86061 184.743 9.86263C184.735 9.89592 184.73 9.92171 184.723 9.94695C184.573 10.4875 184.421 11.0274 184.274 11.5688C184.227 11.7433 184.107 11.8237 183.941 11.8532C183.882 11.8637 183.821 11.8671 183.761 11.8672C183.316 11.8683 182.871 11.869 182.427 11.8664C182.372 11.8661 182.354 11.8848 182.34 11.9344C182.242 12.3005 182.14 12.6657 182.04 13.0313C182.013 13.1288 182.027 13.1468 182.126 13.1473C182.21 13.1477 182.295 13.1474 182.391 13.1474C182.356 13.2769 182.326 13.3924 182.292 13.5066C182.288 13.5197 182.26 13.5341 182.243 13.5339C181.978 13.5316 181.713 13.5282 181.449 13.5218C181.41 13.5208 181.37 13.5072 181.334 13.4923C181.248 13.4564 181.213 13.393 181.237 13.3027C181.31 13.0241 181.386 12.7465 181.462 12.4687C181.691 11.6251 181.922 10.7816 182.15 9.93757C182.164 9.88536 182.185 9.86859 182.238 9.8696C182.414 9.87295 182.589 9.87075 182.765 9.87096C182.785 9.87099 182.805 9.87274 182.832 9.87403Z" fill="#FEFEFE"/>
<path fill-rule="evenodd" clip-rule="evenodd" d="M185.215 6.90936C185.232 6.91194 185.24 6.91424 185.248 6.91424C185.494 6.91434 185.741 6.91975 185.987 6.91222C186.146 6.90734 186.298 6.86425 186.409 6.73904C186.549 6.58137 186.596 6.39122 186.589 6.1857C186.585 6.06955 186.528 5.97986 186.42 5.93887C186.335 5.907 186.243 5.88194 186.154 5.87842C185.929 5.86953 185.703 5.87535 185.478 5.8733C185.438 5.87295 185.424 5.88895 185.417 5.92555C185.385 6.08377 185.351 6.24144 185.318 6.39948C185.284 6.56726 185.25 6.73517 185.215 6.90936ZM184.055 8.84873C184.087 8.68939 184.118 8.53754 184.149 8.38591C184.319 7.56531 184.488 6.74478 184.658 5.92421C184.701 5.71551 184.744 5.50682 184.786 5.29791C184.793 5.26044 184.808 5.24339 184.851 5.24353C185.405 5.24538 185.958 5.24228 186.511 5.24705C186.687 5.24855 186.859 5.28689 187.015 5.37394C187.235 5.49653 187.351 5.69111 187.369 5.93453C187.397 6.32944 187.309 6.69838 187.06 7.0157C186.809 7.33639 186.477 7.52233 186.066 7.54321C185.762 7.55865 185.457 7.55293 185.152 7.55335C185.097 7.55342 185.075 7.56838 185.063 7.62565C184.987 8.01533 184.905 8.40414 184.826 8.7934C184.818 8.83576 184.802 8.85503 184.753 8.85437C184.54 8.85134 184.327 8.85315 184.114 8.85291C184.098 8.85287 184.081 8.85064 184.055 8.84873Z" fill="#FEFEFE"/>
<path fill-rule="evenodd" clip-rule="evenodd" d="M188.021 12.1751H187.312C187.357 12.0182 187.399 11.8691 187.445 11.7214C187.449 11.7085 187.486 11.6994 187.508 11.6993C187.729 11.6977 187.951 11.6966 188.172 11.6995C188.22 11.7002 188.242 11.6859 188.254 11.6397C188.285 11.52 188.32 11.4015 188.357 11.2728H187.575C187.581 11.2435 187.585 11.224 187.59 11.2051C187.624 11.0855 187.659 10.9664 187.691 10.8465C187.702 10.8067 187.719 10.7891 187.764 10.7892C188.489 10.7905 189.213 10.7901 189.938 10.7904C189.954 10.7904 189.97 10.7935 189.993 10.7959C189.988 10.8198 189.985 10.8396 189.979 10.8589C189.946 10.9785 189.91 11.0975 189.879 11.2177C189.868 11.2597 189.848 11.2726 189.805 11.2721C189.602 11.2699 189.4 11.2725 189.197 11.2701C189.151 11.2695 189.131 11.2835 189.12 11.3283C189.089 11.45 189.052 11.5703 189.016 11.6984H189.737C189.726 11.7405 189.717 11.7755 189.707 11.81C189.678 11.9136 189.645 12.0164 189.619 12.1207C189.608 12.1655 189.588 12.1802 189.542 12.1798C189.315 12.1776 189.087 12.1805 188.859 12.1775C188.809 12.1768 188.779 12.193 188.754 12.2351C188.716 12.3004 188.672 12.3626 188.622 12.4386C188.736 12.4386 188.836 12.4408 188.935 12.4376C188.988 12.436 189.012 12.4505 189.021 12.5068C189.043 12.6644 189.074 12.8209 189.098 12.9783C189.108 13.0424 189.148 13.0659 189.206 13.0688C189.255 13.0712 189.305 13.0693 189.361 13.0693C189.358 13.0914 189.357 13.1053 189.354 13.1182C189.319 13.2419 189.284 13.3653 189.25 13.4891C189.241 13.5246 189.222 13.5383 189.184 13.5378C189.03 13.5359 188.875 13.5398 188.721 13.5363C188.586 13.5333 188.458 13.4807 188.436 13.3008C188.417 13.1422 188.373 12.9865 188.337 12.8183C188.214 13.0015 188.095 13.1735 187.982 13.3496C187.893 13.4881 187.774 13.5562 187.607 13.5528C187.405 13.5485 187.202 13.5513 187 13.5511C186.977 13.551 186.955 13.5511 186.922 13.5511C186.939 13.4871 186.953 13.4319 186.968 13.3771C186.991 13.2954 187.017 13.2143 187.038 13.1321C187.047 13.0974 187.065 13.0842 187.099 13.085C187.151 13.0862 187.204 13.0834 187.256 13.0854C187.35 13.089 187.424 13.0488 187.476 12.9761C187.658 12.7201 187.835 12.4615 188.014 12.2036C188.018 12.1991 188.017 12.1921 188.021 12.1751Z" fill="#FEFEFE"/>
<path fill-rule="evenodd" clip-rule="evenodd" d="M189.929 6.62579H190.694C190.702 6.87057 190.711 7.1129 190.715 7.35534C190.719 7.59534 190.716 7.83548 190.716 8.07555C190.724 8.07636 190.732 8.07712 190.74 8.07792C190.805 7.9266 190.871 7.77539 190.936 7.624C191.07 7.31156 191.206 6.99951 191.338 6.68606C191.36 6.63402 191.388 6.61544 191.445 6.61676C191.614 6.62067 191.783 6.61805 191.953 6.6183C191.975 6.61833 191.997 6.62011 192.03 6.62158C192.018 6.65023 192.01 6.67073 192.001 6.69014C191.549 7.6011 191.099 8.51264 190.645 9.42248C190.483 9.74722 190.292 10.053 190.024 10.3055C189.82 10.4973 189.58 10.6028 189.301 10.6228C189.234 10.6276 189.166 10.6309 189.088 10.6355C189.101 10.5345 189.112 10.4469 189.124 10.3593C189.127 10.3326 189.127 10.3047 189.136 10.2797C189.142 10.2606 189.157 10.236 189.173 10.2296C189.402 10.1434 189.564 9.97893 189.703 9.78808C189.872 9.55665 189.996 9.30002 190.108 9.039C190.137 8.97204 190.111 8.8805 190.106 8.80064C190.092 8.61669 190.075 8.43299 190.059 8.24918C190.04 8.01371 190.02 7.77828 190.001 7.54281C189.982 7.31554 189.964 7.08819 189.946 6.86088C189.941 6.78666 189.935 6.71242 189.929 6.62579Z" fill="#FEFEFE"/>
<path fill-rule="evenodd" clip-rule="evenodd" d="M188.535 7.59285C188.521 7.54593 188.505 7.44851 188.464 7.36314C188.405 7.24117 188.282 7.20349 188.156 7.25494C188.112 7.27271 188.069 7.29705 188.033 7.32779C187.812 7.52049 187.721 7.77265 187.715 8.05752C187.712 8.15446 187.733 8.25143 187.791 8.33544C187.855 8.42921 187.954 8.46609 188.063 8.43413C188.159 8.4062 188.233 8.34573 188.295 8.27165C188.448 8.09014 188.521 7.87831 188.535 7.59285ZM188.625 6.97572C188.665 6.94847 188.707 6.92483 188.743 6.89468C188.83 6.82301 188.926 6.7884 189.041 6.78641C189.165 6.78425 189.29 6.7649 189.414 6.75406C189.441 6.75176 189.467 6.75371 189.501 6.75371C189.466 6.91458 189.433 7.0681 189.399 7.2213C189.284 7.74257 189.167 8.26357 189.053 8.78529C189.041 8.83894 189.022 8.85609 188.967 8.854C188.769 8.84643 188.571 8.84508 188.373 8.83748C188.346 8.83643 188.316 8.8174 188.294 8.79913C188.267 8.77693 188.247 8.74674 188.229 8.72579C188.086 8.7671 187.95 8.81123 187.811 8.84501C187.684 8.87582 187.554 8.87945 187.427 8.84741C187.196 8.78944 187.076 8.62759 187.027 8.40687C186.965 8.1219 187.019 7.84656 187.11 7.57626C187.169 7.39828 187.255 7.2334 187.367 7.08089C187.513 6.88039 187.722 6.79474 187.957 6.75301C188.16 6.71673 188.339 6.77905 188.505 6.89161C188.545 6.91842 188.583 6.94658 188.625 6.97572Z" fill="#FEFEFE"/>
<path fill-rule="evenodd" clip-rule="evenodd" d="M181.128 13.1202C181.09 13.2595 181.055 13.3894 181.017 13.5182C181.013 13.5313 180.987 13.5464 180.972 13.5465C180.573 13.5479 180.174 13.5503 179.776 13.5457C179.607 13.5437 179.517 13.4278 179.554 13.2585C179.596 13.0665 179.652 12.8774 179.703 12.6873C179.733 12.5734 179.765 12.46 179.799 12.3365H179.312C179.334 12.2524 179.353 12.1789 179.373 12.1056C179.39 12.0436 179.408 11.982 179.423 11.9196C179.432 11.8859 179.448 11.8735 179.484 11.8741C179.616 11.8762 179.747 11.876 179.879 11.8737C179.897 11.8734 179.928 11.8609 179.932 11.8479C179.971 11.7172 180.006 11.5852 180.044 11.445H179.583C179.587 11.4216 179.588 11.4058 179.592 11.3907C179.624 11.2726 179.657 11.1549 179.687 11.0366C179.697 10.9988 179.714 10.9786 179.756 10.984C179.774 10.9865 179.794 10.9844 179.812 10.9844H181.572H181.662C181.654 11.0192 181.649 11.0469 181.642 11.0738C181.614 11.1758 181.583 11.2769 181.558 11.3795C181.547 11.4267 181.529 11.4464 181.475 11.4455C181.256 11.4417 181.037 11.446 180.818 11.4424C180.765 11.4415 180.746 11.4592 180.735 11.5076C180.706 11.6279 180.67 11.7468 180.636 11.8739H181.393C181.39 11.896 181.39 11.9117 181.386 11.9265C181.354 12.0425 181.321 12.158 181.292 12.2745C181.28 12.3196 181.261 12.3379 181.211 12.3372C180.998 12.3344 180.785 12.3382 180.572 12.3346C180.519 12.3337 180.501 12.353 180.489 12.4003C180.439 12.5926 180.384 12.7841 180.331 12.9757C180.302 13.078 180.332 13.1193 180.441 13.1202C180.629 13.1216 180.816 13.1203 181.004 13.1202C181.042 13.1202 181.079 13.1202 181.128 13.1202Z" fill="#FEFEFE"/>
<path fill-rule="evenodd" clip-rule="evenodd" d="M179.8 7.9756C179.8 8.00049 179.799 8.02544 179.8 8.05023C179.811 8.24704 179.925 8.37361 180.12 8.40624C180.347 8.44423 180.57 8.33875 180.694 8.12347C180.82 7.90452 180.878 7.66633 180.862 7.41337C180.85 7.2381 180.745 7.10696 180.58 7.07636C180.369 7.03717 180.179 7.08573 180.039 7.25706C179.869 7.46534 179.816 7.71548 179.8 7.9756ZM180.105 8.90624C179.929 8.90767 179.759 8.88233 179.604 8.79588C179.323 8.63926 179.202 8.38727 179.2 8.07853C179.199 7.73967 179.286 7.42156 179.478 7.1377C179.834 6.61065 180.433 6.47379 180.916 6.61797C181.226 6.71083 181.438 6.98199 181.455 7.30408C181.48 7.78088 181.354 8.20866 181.006 8.55191C180.758 8.79585 180.452 8.90652 180.105 8.90624Z" fill="#FEFEFE"/>
<path fill-rule="evenodd" clip-rule="evenodd" d="M182.191 8.84744H181.617C181.651 8.67447 181.684 8.50596 181.717 8.3377C181.829 7.78516 181.941 7.2329 182.05 6.68001C182.06 6.63257 182.078 6.61936 182.124 6.61999C182.287 6.62215 182.449 6.62082 182.622 6.62082C182.604 6.72069 182.587 6.81289 182.569 6.90509C182.576 6.91112 182.583 6.91715 182.59 6.92322C182.598 6.90715 182.603 6.88822 182.614 6.87543C182.875 6.58534 183.198 6.50837 183.568 6.60615C183.746 6.6531 183.878 6.83036 183.902 7.01929C183.923 7.18616 183.882 7.34466 183.85 7.50466C183.764 7.93502 183.676 8.36482 183.592 8.79546C183.582 8.84416 183.562 8.85444 183.518 8.85378C183.372 8.85166 183.225 8.85315 183.079 8.85281C183.057 8.85277 183.034 8.8504 183.002 8.84862C183.023 8.74509 183.042 8.64641 183.061 8.54779C183.136 8.16979 183.212 7.79179 183.287 7.41378C183.288 7.40768 183.289 7.40158 183.29 7.39545C183.321 7.16991 183.222 7.05955 182.994 7.06495C182.727 7.07126 182.519 7.24399 182.459 7.52773C182.37 7.94108 182.291 8.35625 182.207 8.77061C182.202 8.79494 182.197 8.81913 182.191 8.84744Z" fill="#FEFEFE"/>
<path fill-rule="evenodd" clip-rule="evenodd" d="M176.275 6.62249C176.254 6.72856 176.236 6.82359 176.215 6.93475C176.241 6.90523 176.257 6.88689 176.273 6.86922C176.528 6.59471 176.84 6.50557 177.2 6.60391C177.421 6.66442 177.563 6.8474 177.554 7.07519C177.546 7.26008 177.511 7.4448 177.476 7.62742C177.403 8.01205 177.322 8.39525 177.245 8.779C177.24 8.80121 177.235 8.82317 177.229 8.84795H176.657C176.678 8.7371 176.699 8.63016 176.72 8.52339C176.792 8.16588 176.865 7.80875 176.935 7.45076C176.946 7.39066 176.946 7.32659 176.94 7.26528C176.93 7.15199 176.861 7.08565 176.748 7.0699C176.477 7.03225 176.24 7.16276 176.147 7.42078C176.097 7.5621 176.072 7.71331 176.042 7.86125C175.977 8.17379 175.916 8.48703 175.855 8.80016C175.849 8.82854 175.846 8.85133 175.807 8.85102C175.632 8.84963 175.457 8.85039 175.271 8.85039C175.291 8.74815 175.309 8.65184 175.329 8.55577C175.453 7.93808 175.578 7.3206 175.699 6.70249C175.712 6.6394 175.734 6.61845 175.8 6.62078C175.954 6.62615 176.108 6.62249 176.275 6.62249Z" fill="#FEFEFE"/>
<path fill-rule="evenodd" clip-rule="evenodd" d="M183.875 13.1683C183.84 13.2923 183.81 13.406 183.775 13.5186C183.771 13.5322 183.746 13.5483 183.731 13.5484C183.461 13.55 183.192 13.5528 182.923 13.5479C182.778 13.5452 182.679 13.44 182.679 13.2924C182.679 13.0891 182.687 12.8858 182.694 12.6826C182.7 12.4732 182.71 12.2638 182.718 12.0544C182.721 11.9717 182.721 11.9716 182.801 11.9716C182.966 11.9715 183.131 11.9716 183.296 11.9716H183.374C183.37 12.0642 183.366 12.1499 183.361 12.2431C183.431 12.2431 183.495 12.2459 183.558 12.2422C183.608 12.2393 183.638 12.2139 183.652 12.1594C183.695 11.9847 183.698 11.9853 183.882 11.9853H184.252C184.202 12.1261 184.17 12.26 184.11 12.3802C184.039 12.5214 183.9 12.5771 183.748 12.5893C183.64 12.5979 183.531 12.5968 183.422 12.5956C183.37 12.595 183.347 12.6066 183.349 12.6645C183.353 12.7888 183.35 12.9135 183.35 13.0381C183.35 13.1131 183.374 13.1438 183.449 13.1559C183.501 13.1641 183.553 13.1667 183.605 13.1678C183.69 13.1697 183.775 13.1683 183.875 13.1683Z" fill="#FEFEFE"/>
<path fill-rule="evenodd" clip-rule="evenodd" d="M178.905 6.62219C178.88 6.74315 178.857 6.85212 178.834 6.96084C178.701 7.57215 178.568 8.18336 178.436 8.79495C178.427 8.83786 178.411 8.85243 178.367 8.85177C178.2 8.8493 178.033 8.8509 177.866 8.85062C177.848 8.85059 177.83 8.84836 177.806 8.84675C177.845 8.66148 177.884 8.48147 177.922 8.30157C178.038 7.76701 178.154 7.23267 178.268 6.69777C178.28 6.64227 178.298 6.61871 178.36 6.62045C178.537 6.6254 178.714 6.62219 178.905 6.62219Z" fill="#FEFEFE"/>
<path fill-rule="evenodd" clip-rule="evenodd" d="M179.703 10.8315C179.743 10.6852 179.78 10.5498 179.82 10.4153C179.823 10.4035 179.846 10.3926 179.861 10.3898C179.886 10.3855 179.911 10.3888 179.936 10.3883C180.026 10.3866 180.093 10.3536 180.142 10.2724C180.216 10.1499 180.299 10.0329 180.382 9.91562C180.395 9.89687 180.423 9.87773 180.445 9.87745C180.67 9.8748 180.896 9.87592 181.121 9.87626C181.129 9.8763 181.137 9.87933 181.154 9.88292C181.105 9.9692 181.059 10.0511 181.006 10.1452H181.895C181.857 10.2866 181.823 10.4163 181.785 10.5443C181.78 10.5579 181.746 10.5699 181.726 10.57C181.415 10.5716 181.104 10.5722 180.793 10.5701C180.741 10.5697 180.707 10.5823 180.674 10.6266C180.569 10.7669 180.429 10.8382 180.249 10.8326C180.072 10.8272 179.895 10.8315 179.703 10.8315Z" fill="#FEFEFE"/>
<path fill-rule="evenodd" clip-rule="evenodd" d="M187.911 9.85465C188.147 9.85465 188.367 9.85528 188.588 9.85413C188.632 9.85392 188.632 9.88369 188.636 9.91203C188.645 9.9839 188.655 10.0558 188.66 10.1279C188.664 10.1839 188.695 10.2039 188.746 10.205C188.793 10.2062 188.841 10.2053 188.895 10.2053C188.892 10.2303 188.891 10.2461 188.887 10.2609C188.854 10.3784 188.82 10.4955 188.787 10.613C188.778 10.6458 188.762 10.6599 188.726 10.6596C188.546 10.658 188.367 10.6613 188.187 10.6583C188.034 10.6557 187.951 10.5794 187.94 10.4277C187.927 10.24 187.921 10.0519 187.911 9.85465Z" fill="#FEFEFE"/>
<path fill-rule="evenodd" clip-rule="evenodd" d="M178.365 6.35131C178.388 6.23823 178.412 6.12511 178.436 6.01207C178.447 5.95936 178.456 5.90599 178.471 5.85465C178.476 5.83837 178.499 5.81634 178.515 5.81616C178.702 5.81397 178.89 5.81526 179.078 5.81599C179.084 5.81602 179.089 5.81982 179.101 5.82432C179.079 5.93304 179.056 6.04187 179.033 6.15063C179.022 6.20738 179.012 6.26472 178.995 6.32022C178.991 6.33622 178.967 6.35786 178.952 6.35807C178.764 6.36041 178.576 6.35929 178.388 6.35873C178.382 6.3587 178.377 6.35521 178.365 6.35131Z" fill="#FEFEFE"/>
<path d="M192.656 0.75C193.151 0.750022 193.573 0.949032 193.841 1.29004C194.075 1.58834 194.177 1.97751 194.123 2.39453L194.091 2.5752L191.076 15.5381C190.855 16.4882 189.907 17.2498 188.937 17.25H170.231C169.736 17.25 169.314 17.0511 169.046 16.71C168.778 16.369 168.684 15.9093 168.797 15.4248L171.811 2.46191L171.86 2.28613C172.15 1.41942 173.041 0.75 173.951 0.75H192.656Z" stroke="white" stroke-width="0.5"/>
<rect x="198" y="1.15149" width="27" height="15.8485" fill="white"/>
<path d="M216.819 10.6225H218.334C218.377 10.6225 218.478 10.608 218.522 10.608C218.81 10.55 219.056 10.2887 219.056 9.92588C219.056 9.57757 218.81 9.31633 218.522 9.24376C218.478 9.22925 218.392 9.22925 218.334 9.22925H216.819V10.6225Z" fill="url(#paint0_linear_6_17508)"/>
<path d="M218.161 1C216.718 1 215.534 2.17557 215.534 3.64141V6.38441H219.243C219.33 6.38441 219.431 6.38441 219.503 6.39893C220.34 6.44246 220.961 6.87786 220.961 7.63255C220.961 8.22759 220.542 8.73556 219.763 8.83715V8.86618C220.614 8.92423 221.264 9.40316 221.264 10.1433C221.264 10.9416 220.542 11.464 219.59 11.464H215.52V16.8339H219.373C220.817 16.8339 222 15.6584 222 14.1925V1H218.161Z" fill="url(#paint1_linear_6_17508)"/>
<path d="M218.868 7.80643C218.868 7.45811 218.623 7.2259 218.334 7.18236C218.305 7.18236 218.233 7.16785 218.19 7.16785H216.819V8.44501H218.19C218.233 8.44501 218.32 8.44501 218.334 8.4305C218.623 8.38696 218.868 8.15475 218.868 7.80643Z" fill="url(#paint2_linear_6_17508)"/>
<path d="M203.641 1C202.198 1 201.014 2.17557 201.014 3.64141V10.1579C201.751 10.5207 202.515 10.7529 203.28 10.7529C204.19 10.7529 204.68 10.2014 204.68 9.44671V6.3699H206.932V9.43219C206.932 10.6223 206.196 11.5947 203.699 11.5947C202.184 11.5947 201 11.2609 201 11.2609V16.8194H204.854C206.297 16.8194 207.48 15.6439 207.48 14.178V1H203.641Z" fill="url(#paint3_linear_6_17508)"/>
<path d="M210.901 1C209.458 1 208.274 2.17557 208.274 3.64141V7.09556C208.938 6.52954 210.093 6.16671 211.955 6.25379C212.951 6.29733 214.019 6.57308 214.019 6.57308V7.6906C213.485 7.41485 212.85 7.16813 212.027 7.11007C210.612 7.00848 209.761 7.70512 209.761 8.92423C209.761 10.1579 210.612 10.8545 212.027 10.7384C212.85 10.6803 213.485 10.4191 214.019 10.1579V11.2754C214.019 11.2754 212.965 11.5511 211.955 11.5947C210.093 11.6817 208.938 11.3189 208.274 10.7529V16.8485H212.128C213.571 16.8485 214.755 15.6729 214.755 14.207V1H210.901Z" fill="url(#paint4_linear_6_17508)"/>
<path fill-rule="evenodd" clip-rule="evenodd" d="M255.268 17H230.732C229.779 17 229 16.2477 229 15.3283V2.67174C229 1.75229 229.779 1 230.732 1H255.268C256.221 1 257 1.75229 257 2.67174V15.3283C257 16.2477 256.221 17 255.268 17Z" fill="#00A0E9"/>
<mask id="mask0_6_17508" style="mask-type:luminance" maskUnits="userSpaceOnUse" x="234" y="3" width="17" height="12">
<path fill-rule="evenodd" clip-rule="evenodd" d="M234.974 3H251V14.9828H234.974V3Z" fill="white"/>
</mask>
<g mask="url(#mask0_6_17508)">
<path fill-rule="evenodd" clip-rule="evenodd" d="M238.923 13.7881C237.494 13.7881 235.995 13.1321 235.995 11.8671C235.995 10.602 237.424 9.8992 238.97 9.8992C240.516 9.8992 242.976 11.2345 242.976 11.2345C242.391 12.2653 240.352 13.7881 238.923 13.7881ZM245.385 10.3565C246.352 8.81081 246.74 6.91604 246.74 6.91604H243.292V5.67067H247.477V4.9948H243.292V3H241.524C241.472 3 241.43 3.04193 241.43 3.09371V5.02643H239.556V4.3939H239.111V5.003H237.26V5.72923H241.5V6.87715H238.057V7.60338H244.64C244.499 8.65759 243.679 9.87579 243.679 9.87579C243.679 9.87579 240.47 8.7513 238.549 8.7513C236.628 8.7513 235.045 10.1115 234.976 11.6914C234.917 13.0384 235.96 15.1586 239.076 14.9711C242.191 14.7837 244.3 11.9725 244.3 11.9725L251 14.981V12.2332C245.518 10.6899 245.385 10.3565 245.385 10.3565Z" fill="white"/>
</g>
<path fill-rule="evenodd" clip-rule="evenodd" d="M287.268 17H262.732C261.779 17 261 16.2477 261 15.3283V2.67174C261 1.75229 261.779 1 262.732 1H287.268C288.221 1 289 1.75229 289 2.67174V15.3283C289 16.2477 288.221 17 287.268 17Z" fill="#00C800"/>
<path fill-rule="evenodd" clip-rule="evenodd" d="M281 8.22122C281 11.1049 278.314 13.4424 275 13.4424C274.272 13.4424 273.574 13.3297 272.928 13.1228C272.848 13.0973 272.762 13.1057 272.689 13.1483L271.285 13.969C271.111 14.0714 270.904 13.9044 270.954 13.7011L271.236 12.5405C271.267 12.4122 271.218 12.277 271.115 12.2005C269.821 11.2428 269 9.81509 269 8.22122C269 5.33759 271.686 3 275 3C277.019 3 278.806 3.86808 279.893 5.19929L273.768 8.04984C273.672 8.09448 273.561 8.08412 273.475 8.02274L271.943 6.93585C271.849 6.86889 271.73 6.97251 271.775 7.08252L272.894 9.80274C272.984 10.0219 273.236 10.1092 273.433 9.99006L280.323 5.8095C280.755 6.5309 281 7.35115 281 8.22122Z" fill="white"/>
<defs>
<linearGradient id="paint0_linear_6_17508" x1="215.532" y1="9.92761" x2="222.017" y2="9.92761" gradientUnits="userSpaceOnUse">
<stop stop-color="#007940"/>
<stop offset="0.2285" stop-color="#00873F"/>
<stop offset="0.7433" stop-color="#40A737"/>
<stop offset="1" stop-color="#5CB531"/>
</linearGradient>
<linearGradient id="paint1_linear_6_17508" x1="215.531" y1="8.91063" x2="222.018" y2="8.91063" gradientUnits="userSpaceOnUse">
<stop stop-color="#007940"/>
<stop offset="0.2285" stop-color="#00873F"/>
<stop offset="0.7433" stop-color="#40A737"/>
<stop offset="1" stop-color="#5CB531"/>
</linearGradient>
<linearGradient id="paint2_linear_6_17508" x1="215.531" y1="7.80461" x2="222.018" y2="7.80461" gradientUnits="userSpaceOnUse">
<stop stop-color="#007940"/>
<stop offset="0.2285" stop-color="#00873F"/>
<stop offset="0.7433" stop-color="#40A737"/>
<stop offset="1" stop-color="#5CB531"/>
</linearGradient>
<linearGradient id="paint3_linear_6_17508" x1="201.011" y1="8.91063" x2="207.598" y2="8.91063" gradientUnits="userSpaceOnUse">
<stop stop-color="#1F286F"/>
<stop offset="0.4751" stop-color="#004E94"/>
<stop offset="0.8261" stop-color="#0066B1"/>
<stop offset="1" stop-color="#006FBC"/>
</linearGradient>
<linearGradient id="paint4_linear_6_17508" x1="208.237" y1="8.91063" x2="214.634" y2="8.91063" gradientUnits="userSpaceOnUse">
<stop stop-color="#6C2C2F"/>
<stop offset="0.1735" stop-color="#882730"/>
<stop offset="0.5731" stop-color="#BE1833"/>
<stop offset="0.8585" stop-color="#DC0436"/>
<stop offset="1" stop-color="#E60039"/>
</linearGradient>
</defs>
</svg>
